<svg xmlns="http://www.w3.org/2000/svg" width="15" height="15" viewBox="0 0 15 15">
  <title>
    Valentines
  </title>
  <g fill="none" transform="translate(0 2)">
    <path fill="#FF2E63" d="M6.570984,2.065554 C6.741696,1.909554 6.918432,1.759554 7.08204,1.596354 C7.63017282,1.01777558 8.35738524,0.640924899 9.146154,0.526704 C10.3148172,0.325043433 11.4922028,0.833177692 12.147138,1.821864 C12.5241282,2.33085025 12.7542634,2.93350345 12.81249,3.564216 C12.8554712,4.0953887 12.7897834,4.62974958 12.619434,5.134698 C12.371439,5.85961637 12.0068735,6.53923542 11.540094,7.146792 C10.9055141,7.98469336 10.1865052,8.75516255 9.394398,9.446058 C8.51627497,10.2203473 7.59808597,10.9479757 6.643626,11.625936 C6.61095,11.649546 6.58749,11.66112 6.54777,11.6322 C5.25863132,10.7280236 4.04541626,9.72016984 2.9202,8.61867 C2.23924319,7.95221099 1.64249099,7.20484512 1.143276,6.39327 C0.809390783,5.8468444 0.568836287,5.24862954 0.431484,4.623174 C0.141061506,3.23812468 0.703783656,1.81323682 1.862214,1.000374 C2.46133547,0.594880584 3.18698015,0.419947432 3.905058,0.5079 C4.74465873,0.600689124 5.52413431,0.988265796 6.104856,1.6017 C6.248466,1.746738 6.389352,1.8945 6.530514,2.041932 C6.54765403,2.06276293 6.56310314,2.08492939 6.576714,2.10822 L6.570984,2.065554 Z"/>
    <path fill="#000" d="M6.58989,11.887446 C6.52366477,11.8860929 6.45958206,11.8637333 6.40689,11.823594 C5.10757313,10.9121709 3.884952,9.89603768 2.751246,8.78535 C2.05599681,8.10588726 1.44738412,7.34310612 0.939246,6.51435 C0.591268782,5.94577273 0.340948084,5.32294409 0.198666,4.671696 C-0.117868673,3.1911398 0.486287184,1.66539331 1.73061,0.802896 C2.37589486,0.366217036 3.1572676,0.177481234 3.930732,0.27147 C4.82439158,0.371087131 5.6541577,0.783116372 6.273648,1.43487 C6.3747,1.536432 6.474252,1.6395 6.573798,1.743576 C6.688932,1.640508 6.80457,1.53744 6.914172,1.427832 C7.49993752,0.813540742 8.27479548,0.413444361 9.114804,0.29154 C10.3704916,0.0748106511 11.6356074,0.620577325 12.3396,1.682706 C12.7411722,2.2264136 12.98664,2.86946297 13.049514,3.54246 C13.0958238,4.10559437 13.0265314,4.67225159 12.845892,5.207634 C12.5911358,5.95749335 12.214524,6.66023437 11.7312,7.2876 C11.0881731,8.1396576 10.3580578,8.92234714 9.552696,9.622974 C8.66873525,10.4030864 7.74419384,11.1359729 6.782934,11.818572 C6.72762698,11.8616195 6.65995515,11.8857634 6.58989,11.887446 Z M6.568758,2.349558 C6.49450335,2.33931048 6.42711001,2.30068356 6.380736,2.241792 L6.298278,2.142744 C6.17862,2.017554 6.058458,1.892364 5.936286,1.769184 C5.39531816,1.19250799 4.66558982,0.828803953 3.87945,0.744036 C3.76873947,0.73207235 3.65746902,0.726029745 3.546114,0.725934 C2.99301978,0.723370448 2.45204763,0.887923855 1.994064,1.198038 C0.91960178,1.95987139 0.397694412,3.28526056 0.664236,4.57515 C0.795831102,5.17497183 1.02694961,5.74852034 1.348002,6.271998 C1.83633127,7.06747595 2.42113047,7.79953196 3.089094,8.45151 C4.17604263,9.51727749 5.34746687,10.4933239 6.591894,11.37009 C7.50898444,10.7159186 8.39152606,10.0146185 9.235962,9.269016 C10.016806,8.58971574 10.724987,7.83115443 11.349108,7.00554 C11.8015672,6.41937507 12.1543765,5.76267939 12.393366,5.061828 C12.5544287,4.58725012 12.6165401,4.08470291 12.575868,3.585192 C12.5206176,2.99735306 12.3057314,2.43579955 11.954442,1.961244 C11.3522546,1.04153076 10.2594872,0.569726472 9.177138,0.762138 C8.43968822,0.86817051 7.76016484,1.22167245 7.250028,1.76466 C7.132878,1.880802 6.97212,2.031954 6.84894,2.14206 L6.754854,2.236614 C6.71105263,2.29831541 6.64371156,2.33918555 6.568758,2.349558 Z"/>
    <path fill="#FFA9DC" d="M10.518264,5.369538 C10.621518,5.275164 10.728414,5.184444 10.827366,5.085738 C11.1589012,4.73580376 11.5987442,4.50788017 12.075816,4.4388 C12.7826645,4.31683576 13.4947856,4.62417232 13.890918,5.22216 C14.1189358,5.53001427 14.2581308,5.89452136 14.29335,6.276 C14.3193428,6.59727218 14.2796129,6.92047201 14.176584,7.225884 C14.0265954,7.66433909 13.8061011,8.07539685 13.523784,8.44287 C13.1399667,8.94966284 12.7050822,9.41566887 12.225984,9.833544 C11.6948647,10.301863 11.1395116,10.7419593 10.56222,11.152014 C10.542456,11.166294 10.528266,11.173296 10.504242,11.1558 C9.7245286,10.6089185 8.99073799,9.99932796 8.310174,9.333096 C7.89829817,8.93000226 7.53735207,8.47797181 7.2354,7.987104 C7.03345192,7.65660785 6.88795556,7.29478619 6.804882,6.916488 C6.62921898,6.07876007 6.9695742,5.21693402 7.670238,4.725288 C8.03260628,4.48003112 8.47150004,4.3742239 8.905818,4.427418 C9.41363712,4.48353972 9.88509147,4.71795619 10.236336,5.088978 C10.323198,5.176704 10.40841,5.266074 10.49379,5.355252 C10.504932,5.366874 10.519422,5.378136 10.518264,5.369538 Z"/>
    <path fill="#000" d="M10.530468,11.414724 C10.4679979,11.4140318 10.4074035,11.393284 10.35762,11.35554 C9.56879252,10.8023878 8.82665542,10.1854784 8.13867,9.511014 C7.71321807,9.09473184 7.34077436,8.62752773 7.029786,8.119998 C6.81341046,7.76684987 6.65801789,7.37980146 6.57012,6.975072 C6.37044326,6.03966948 6.75270043,5.07593641 7.539258,4.531716 C7.87868293,4.30180784 8.27950002,4.17949277 8.689458,4.18070691 C8.77226239,4.18059257 8.85500912,4.18509156 8.937312,4.194192 C9.50052495,4.25638348 10.0235737,4.51583135 10.413876,4.926612 L10.545708,5.061966 C10.5682684,5.00685061 10.6048256,4.95857922 10.651764,4.921926 C11.021815,4.53501994 11.5106284,4.2829815 12.040434,4.20591 C12.1536897,4.19092975 12.2677962,4.18329579 12.382038,4.183056 C13.0665635,4.17719654 13.7076482,4.51780101 14.085942,5.08833 C14.3388658,5.43190121 14.4936061,5.83778073 14.533602,6.26253 C14.562558,6.61675643 14.5193005,6.97317429 14.40645,7.31019 C14.2495063,7.77359698 14.0168638,8.20779713 13.717974,8.59515 C13.3259434,9.11558583 12.880335,9.59340696 12.388482,10.02075 C11.8524533,10.4942562 11.2917069,10.9390219 10.708602,11.353176 C10.6572566,11.3920694 10.5948717,11.4136243 10.530468,11.414724 L10.530468,11.414724 Z M8.692968,4.67758712 C8.37990192,4.6763255 8.07375386,4.76966085 7.814646,4.945374 C7.20128326,5.38097964 6.90382054,6.13826409 7.056738,6.874866 C7.134076,7.22547478 7.2693304,7.56073536 7.456938,7.866858 C7.74739006,8.33942331 8.09503604,8.77434856 8.491998,9.161778 C9.13034353,9.7892652 9.81831291,10.3641853 10.5492,10.880934 C11.133966,10.429176 11.6244,10.038354 12.05799,9.651048 C12.523355,9.24552529 12.9457026,8.79313705 13.318344,8.301048 C13.5844094,7.95598554 13.79205,7.5696023 13.93299,7.157298 C14.025879,6.88449389 14.0619711,6.59556946 14.039046,6.308298 C14.007458,5.97207252 13.8844596,5.65090252 13.683378,5.379588 C13.3972651,4.93802037 12.9046165,4.67411764 12.378498,4.680588 C12.2871839,4.68070386 12.1959745,4.68677273 12.10545,4.698756 C11.6832577,4.7599582 11.2944093,4.96285699 11.002716,5.274156 C10.931232,5.34564 10.832208,5.437632 10.757208,5.5056 L10.704474,5.558922 C10.6606551,5.61876909 10.5917011,5.65508327 10.517562,5.657358 C10.4406056,5.65151379 10.3696205,5.6136861 10.321854,5.553066 L10.273812,5.495058 C10.206426,5.425332 10.134942,5.350332 10.061112,5.277084 C9.75180356,4.94597977 9.33384664,4.73700238 8.883378,4.68822 C8.82014651,4.68124219 8.75658326,4.67769699 8.692968,4.67758712 Z"/>
  </g>
</svg>
